<svg width="fill" height="fill" viewBox="0 0 20 20" fill="none" xmlns="http://www.w3.org/2000/svg">
<path d="M5.1077 8.68155L5.10693 9.66395C5.10693 10.2454 4.97849 10.8191 4.73174 11.3444L4.3838 12.0824C3.85372 13.2103 4.67648 14.5071 5.92268 14.5071H14.0763C15.3233 14.5071 16.1461 13.2103 15.6152 12.0824L15.2681 11.3444C15.0205 10.8191 14.8921 10.2454 14.8921 9.66395V8.68155C14.8921 5.97979 12.7021 3.78979 10.0004 3.78979C8.12262 3.78979 6.49162 4.84765 5.67142 6.39995" stroke="white" stroke-width="1.2" stroke-linecap="round" stroke-linejoin="round"/>
<path d="M10 2.80005V3.79016" stroke="white" stroke-width="1.2" stroke-linecap="round" stroke-linejoin="round"/>
<path d="M7.59082 7.67903C7.70057 6.98859 8.18244 6.42581 8.837 6.21021" stroke="white" stroke-width="1.2" stroke-linecap="round" stroke-linejoin="round"/>
<path d="M7.69043 14.8915C7.69043 16.1664 8.72413 17.2001 9.99917 17.2001C10.6979 17.2001 11.324 16.89 11.7475 16.4" stroke="white" stroke-width="1.2" stroke-linecap="round" stroke-linejoin="round"/>
</svg>
