<svg width="44" height="44" viewBox="0 0 44 44" fill="none" xmlns="http://www.w3.org/2000/svg">
<path fill-rule="evenodd" clip-rule="evenodd" d="M7.31536 7.14518C9.12024 5.20881 11.6906 4.125 14.7256 4.125H30.1893C33.2314 4.125 35.8028 5.20821 37.607 7.14569C39.4007 9.07209 40.3333 11.7313 40.3333 14.715V29.2849C40.3333 32.2687 39.4007 34.9279 37.6066 36.8544C35.8022 38.7919 33.2303 39.875 30.1875 39.875H14.7256C11.6835 39.875 9.11236 38.7917 7.30871 36.8542C5.51543 34.9278 4.58333 32.2685 4.58333 29.2849V14.715C4.58333 11.7298 5.52047 9.0708 7.31536 7.14518ZM9.32699 9.02022C8.08544 10.3522 7.33333 12.3008 7.33333 14.715V29.2849C7.33333 31.7009 8.08245 33.6492 9.3216 34.9804C10.5504 36.3006 12.3629 37.125 14.7256 37.125H30.1875C32.5512 37.125 34.3647 36.3004 35.5942 34.9802C36.8339 33.649 37.5833 31.7007 37.5833 29.2849V14.715C37.5833 12.2992 36.8339 10.3509 35.5943 9.01971C34.3651 7.69954 32.5519 6.875 30.1893 6.875H14.7256C12.3718 6.875 10.5585 7.69895 9.32699 9.02022Z" fill="#D9D9D9"/>
<path fill-rule="evenodd" clip-rule="evenodd" d="M14.459 17.2233C14.459 16.4639 15.0746 15.8483 15.834 15.8483H29.0875C29.8468 15.8483 30.4625 16.4639 30.4625 17.2233C30.4625 17.9827 29.8468 18.5982 29.0875 18.5982H15.834C15.0746 18.5982 14.459 17.9827 14.459 17.2233ZM14.459 26.7729C14.459 26.0133 15.0746 25.3979 15.834 25.3979H29.0875C29.8468 25.3979 30.4625 26.0133 30.4625 26.7729C30.4625 27.5323 29.8468 28.1479 29.0875 28.1479H15.834C15.0746 28.1479 14.459 27.5323 14.459 26.7729Z" fill="#D9D9D9"/>
</svg>
