<svg width="20" height="20" viewBox="0 0 20 20" fill="none" xmlns="http://www.w3.org/2000/svg">
<path fill-rule="evenodd" clip-rule="evenodd" d="M11.9235 5.48067H8.23559C7.64101 5.48067 7.15918 4.99883 7.15918 4.40426V3.94945C7.15918 3.35488 7.64101 2.87305 8.23559 2.87305H11.9235C12.5181 2.87305 12.9999 3.35488 12.9999 3.94945V4.40426C12.9999 4.99883 12.5181 5.48067 11.9235 5.48067Z" stroke="white" stroke-width="1.19048" stroke-linecap="round" stroke-linejoin="round"/>
<path d="M13.0007 4.13794C14.6462 4.13794 15.9805 5.47225 15.9805 7.11775V14.1792C15.9805 15.8247 14.6462 17.1591 13.0007 17.1591H7.15998C5.51449 17.1591 4.18018 15.8247 4.18018 14.1792V7.11775C4.18018 5.47225 5.51449 4.13794 7.15998 4.13794" stroke="white" stroke-width="1.19048" stroke-linecap="round" stroke-linejoin="round"/>
<path d="M12.4741 12.3557H7.68506M10.0796 9.17578H7.68506" stroke="white" stroke-width="1.19048" stroke-linecap="round" stroke-linejoin="round"/>
</svg>
