<svg width="20" height="20" viewBox="0 0 20 20" fill="none" xmlns="http://www.w3.org/2000/svg">
<path d="M6.52725 17.2849C4.88246 17.2486 3.57822 15.8857 3.61451 14.2409V5.90195C3.65312 4.28342 4.97976 2.99308 6.59906 3.00003H11.084C11.5272 3.00003 11.9512 3.17995 12.2577 3.49964L15.267 6.634C15.5573 6.93746 15.7202 7.34133 15.7202 7.76063V14.2409C15.7311 15.8718 14.4477 17.2193 12.8175 17.2857M6.52725 17.2849C6.55118 17.2849 6.57512 17.2857 6.59906 17.2857H12.8175M6.52725 17.2849C6.55118 17.2849 12.8175 17.2857 12.8175 17.2857" stroke="white" stroke-width="1.19048" stroke-linecap="round" stroke-linejoin="round"/>
<path d="M11.4683 3.04956V5.34531C11.4675 6.46577 12.3749 7.37465 13.4953 7.37696H15.6691" stroke="white" stroke-width="1.19048" stroke-linecap="round" stroke-linejoin="round"/>
<path d="M6.90137 13.6999H10.4404M6.90137 10.9851H12.2403M6.90137 8.27039H9.23651" stroke="white" stroke-width="1.19048" stroke-linecap="round" stroke-linejoin="round"/>
</svg>
