<svg width="fill" height="fill" viewBox="0 0 50 50" fill="none" xmlns="http://www.w3.org/2000/svg">
<path d="M22.2681 41.7258H17.1597C12.6758 41.7258 9.04126 38.0915 9.04126 33.6075V14.3685C9.04126 9.88456 12.6758 6.25 17.1597 6.25H31.1466C35.6306 6.25 39.2649 9.88456 39.2649 14.3685V21.001" stroke="#DADADA" stroke-width="3.125" stroke-linecap="round" stroke-linejoin="round"/>
<path d="M31.3298 34.8386L33.2464 36.759L37.1973 32.8063M27.4389 30.0551C27.4389 28.8778 28.3927 27.9221 29.5716 27.9205H30.5423C31.1048 27.9205 31.645 27.6988 32.0454 27.3019L32.7235 26.6221C33.5525 25.7857 34.9048 25.7838 35.7394 26.6128L35.7412 26.6146L35.7485 26.6221L36.4285 27.3001C36.8271 27.6969 37.3673 27.9205 37.9316 27.9205H38.9041C40.0814 27.9205 41.0369 28.8759 41.0369 30.0551V31.0238C41.0369 31.5863 41.2604 32.1284 41.6573 32.5269L42.3352 33.2069C43.1716 34.0376 43.1773 35.3882 42.3464 36.2244L42.3371 36.2319L41.6573 36.9119C41.2604 37.3124 41.0387 37.8507 41.0387 38.4132V39.3874C41.0369 40.5646 40.0814 41.5184 38.9041 41.5165H37.93C37.3654 41.5165 36.8252 41.7401 36.4266 42.1369L35.7466 42.8167C34.9179 43.6532 33.5691 43.6588 32.731 42.8299L32.7291 42.8261L32.7216 42.8186L32.0416 42.1405C31.6431 41.7438 31.1029 41.5203 30.5404 41.5203H29.5716C28.3946 41.5203 27.4389 40.5646 27.4389 39.3874V38.4113C27.4389 37.8488 27.2154 37.3105 26.8185 36.9101L26.1406 36.2301C25.3041 35.403 25.2966 34.0526 26.1256 33.2161L26.1294 33.2124L26.1387 33.2051L26.8166 32.5251C27.2135 32.1265 27.4371 31.5863 27.4371 31.0219L27.4389 30.0551Z" stroke="#DADADA" stroke-width="3.125" stroke-linecap="round" stroke-linejoin="round"/>
<path d="M25.5093 18.0338H17.4173M20.7194 26.7777H17.4153" stroke="#DADADA" stroke-width="3.125" stroke-linecap="round" stroke-linejoin="round"/>
</svg>
