<svg width="fill" height="fill" viewBox="0 0 12 12" fill="none" xmlns="http://www.w3.org/2000/svg">
<g clip-path="url(#clip0_48_1061)">
<path d="M7.85492 4.14516C7.80844 4.0983 7.75314 4.0611 7.69221 4.03572C7.63128 4.01033 7.56592 3.99726 7.49992 3.99726C7.43391 3.99726 7.36856 4.01033 7.30763 4.03572C7.2467 4.0611 7.1914 4.0983 7.14492 4.14516L5.99992 5.29516L4.85492 4.14516C4.76077 4.05101 4.63307 3.99812 4.49992 3.99812C4.36677 3.99812 4.23907 4.05101 4.14492 4.14516C4.05077 4.23931 3.99787 4.36701 3.99787 4.50016C3.99787 4.63331 4.05077 4.76101 4.14492 4.85516L5.29492 6.00016L4.14492 7.14516C4.09805 7.19164 4.06086 7.24694 4.03547 7.30787C4.01009 7.3688 3.99702 7.43416 3.99702 7.50016C3.99702 7.56617 4.01009 7.63152 4.03547 7.69245C4.06086 7.75338 4.09805 7.80868 4.14492 7.85516C4.1914 7.90203 4.2467 7.93922 4.30763 7.96461C4.36856 7.98999 4.43391 8.00306 4.49992 8.00306C4.56592 8.00306 4.63128 7.98999 4.69221 7.96461C4.75314 7.93922 4.80844 7.90203 4.85492 7.85516L5.99992 6.70516L7.14492 7.85516C7.1914 7.90203 7.2467 7.93922 7.30763 7.96461C7.36856 7.98999 7.43391 8.00306 7.49992 8.00306C7.56592 8.00306 7.63128 7.98999 7.69221 7.96461C7.75314 7.93922 7.80844 7.90203 7.85492 7.85516C7.90178 7.80868 7.93898 7.75338 7.96436 7.69245C7.98975 7.63152 8.00282 7.56617 8.00282 7.50016C8.00282 7.43416 7.98975 7.3688 7.96436 7.30787C7.93898 7.24694 7.90178 7.19164 7.85492 7.14516L6.70492 6.00016L7.85492 4.85516C7.90178 4.80868 7.93898 4.75338 7.96436 4.69245C7.98975 4.63152 8.00282 4.56617 8.00282 4.50016C8.00282 4.43416 7.98975 4.3688 7.96436 4.30787C7.93898 4.24694 7.90178 4.19164 7.85492 4.14516ZM9.53492 2.46516C9.07368 1.98761 8.52196 1.6067 7.91194 1.34465C7.30192 1.08261 6.64582 0.944679 5.98192 0.938909C5.31803 0.93314 4.65963 1.05965 4.04515 1.31105C3.43067 1.56246 2.87241 1.93372 2.40294 2.40319C1.93348 2.87265 1.56221 3.43091 1.31081 4.04539C1.0594 4.65987 0.932896 5.31827 0.938665 5.98217C0.944434 6.64606 1.08237 7.30216 1.34441 7.91218C1.60646 8.5222 1.98737 9.07393 2.46492 9.53516C2.92615 10.0127 3.47787 10.3936 4.08789 10.6557C4.69791 10.9177 5.35401 11.0556 6.01791 11.0614C6.68181 11.0672 7.34021 10.9407 7.95469 10.6893C8.56917 10.4379 9.12743 10.0666 9.59689 9.59714C10.0664 9.12767 10.4376 8.56941 10.689 7.95493C10.9404 7.34045 11.0669 6.68205 11.0612 6.01816C11.0554 5.35426 10.9175 4.69816 10.6554 4.08814C10.3934 3.47812 10.0125 2.9264 9.53492 2.46516ZM8.82992 8.83016C8.17594 9.48487 7.31519 9.89257 6.39431 9.98382C5.47344 10.0751 4.54942 9.84419 3.77968 9.33055C3.00994 8.81691 2.4421 8.05227 2.1729 7.1669C1.90371 6.28154 1.94982 5.33023 2.30337 4.47505C2.65693 3.61988 3.29605 2.91374 4.11186 2.47694C4.92767 2.04015 5.86969 1.89973 6.77742 2.0796C7.68515 2.25947 8.50244 2.74851 9.09004 3.46339C9.67764 4.17828 9.99919 5.07478 9.99992 6.00016C10.0017 6.52581 9.89921 7.04658 9.69838 7.53235C9.49755 8.01812 9.20237 8.45924 8.82992 8.83016Z" fill="#ED4D4D"/>
</g>
<defs>
<clipPath id="clip0_48_1061">
<rect width="12" height="12" fill="white"/>
</clipPath>
</defs>
</svg>
