<svg width="full" height="full" viewBox="0 0 14 14" fill="none" xmlns="http://www.w3.org/2000/svg">
<path fill-rule="evenodd" clip-rule="evenodd" d="M6.99819 4.16613H4.89649C4.25173 4.16613 3.729 3.62524 3.729 2.95835C3.729 2.29089 4.25173 1.75 4.89649 1.75C6.53106 1.75 6.99819 4.16613 6.99819 4.16613Z" stroke="white" stroke-width="0.875" stroke-linecap="round" stroke-linejoin="round"/>
<path fill-rule="evenodd" clip-rule="evenodd" d="M6.99756 4.16613H9.09913C9.74389 4.16613 10.2666 3.62524 10.2666 2.95835C10.2666 2.29089 9.74389 1.75 9.09913 1.75C7.46452 1.75 6.99756 4.16613 6.99756 4.16613Z" stroke="white" stroke-width="0.875" stroke-linecap="round" stroke-linejoin="round"/>
<path d="M9.84142 12.2491H4.15615C2.90239 12.2491 2.12256 11.3149 2.12256 9.99131V6.42248C2.12256 5.0995 2.90239 4.16528 4.15671 4.16528H9.84142C11.0952 4.16528 11.875 5.0995 11.875 6.42248V9.99131C11.875 11.3149 11.0912 12.2491 9.84142 12.2491Z" stroke="white" stroke-width="0.875" stroke-linecap="round" stroke-linejoin="round"/>
<path d="M2.12256 8.03687L6.99673 8.03692L11.8767 8.03687" stroke="white" stroke-width="0.875" stroke-linecap="round" stroke-linejoin="round"/>
<path d="M6.99756 12.2482V8.03684V4.16772" stroke="white" stroke-width="0.875" stroke-linecap="round" stroke-linejoin="round"/>
</svg>
