<svg width="full" height="full" viewBox="0 0 16 17" fill="none" xmlns="http://www.w3.org/2000/svg">
<path fill-rule="evenodd" clip-rule="evenodd" d="M9.28775 11.4684C10.1908 11.4684 10.9257 12.1982 10.9257 13.0952V15.4022C10.9257 15.5949 11.0802 15.7494 11.2782 15.7539H12.7078C13.8343 15.7539 14.75 14.8494 14.75 13.7379V7.19494C14.7448 6.81244 14.5625 6.45244 14.2498 6.21319L9.305 2.26969C8.64125 1.74394 7.71275 1.74394 7.04675 2.27119L2.13575 6.21169C1.811 6.45844 1.62875 6.81844 1.625 7.20769V13.7379C1.625 14.8494 2.54075 15.7539 3.66725 15.7539H5.11025C5.3135 15.7539 5.4785 15.5927 5.4785 15.3947C5.4785 15.3512 5.48375 15.3077 5.49275 15.2664V13.0952C5.49275 12.2034 6.22325 11.4744 7.1195 11.4684H9.28775ZM12.7078 16.8789H11.2648C10.4383 16.8594 9.80075 16.2107 9.80075 15.4022V13.0952C9.80075 12.8184 9.5705 12.5934 9.28775 12.5934H7.12325C6.8465 12.5949 6.61775 12.8207 6.61775 13.0952V15.3947C6.61775 15.4509 6.61025 15.5049 6.5945 15.5559C6.5135 16.2984 5.879 16.8789 5.11025 16.8789H3.66725C1.9205 16.8789 0.5 15.4697 0.5 13.7379V7.20244C0.5075 6.45694 0.851 5.77444 1.44425 5.32519L6.3455 1.39144C7.42475 0.536438 8.9285 0.536438 10.0055 1.38994L14.942 5.32744C15.5218 5.76919 15.8652 6.45019 15.875 7.18669V13.7379C15.875 15.4697 14.4545 16.8789 12.7078 16.8789Z" fill="url(#paint0_linear_2_1858)"/>
<defs>
<linearGradient id="paint0_linear_2_1858" x1="8.1875" y1="0.75" x2="8.1875" y2="16.8789" gradientUnits="userSpaceOnUse">
<stop stop-color="#0C6CF2"/>
<stop offset="1" stop-color="#8150ED"/>
</linearGradient>
</defs>
</svg>
