<svg width="fill" height="fill" viewBox="0 0 12 12" fill="none" xmlns="http://www.w3.org/2000/svg">
<g clip-path="url(#clip0_48_1052)">
<path d="M4.5 1.5C4.5 0.67125 5.17125 0 6 0C6.82875 0 7.5 0.67125 7.5 1.5C7.5 2.32875 6.82875 3 6 3C5.17125 3 4.5 2.32875 4.5 1.5ZM7.68225 2.81775C7.68225 1.989 8.3535 1.31775 9.18225 1.31775C10.011 1.31775 10.6823 1.989 10.6823 2.81775C10.6823 3.6465 10.011 4.31775 9.18225 4.31775C8.3535 4.31775 7.68225 3.6465 7.68225 2.81775ZM9.75 6C9.75 5.586 10.086 5.25 10.5 5.25C10.914 5.25 11.25 5.586 11.25 6C11.25 6.414 10.914 6.75 10.5 6.75C10.086 6.75 9.75 6.414 9.75 6ZM8.43225 9.18225C8.43225 8.76825 8.76825 8.43225 9.18225 8.43225C9.59625 8.43225 9.93225 8.76825 9.93225 9.18225C9.93225 9.59625 9.59625 9.93225 9.18225 9.93225C8.76825 9.93225 8.43225 9.59625 8.43225 9.18225ZM5.25 10.5C5.25 10.086 5.586 9.75 6 9.75C6.414 9.75 6.75 10.086 6.75 10.5C6.75 10.914 6.414 11.25 6 11.25C5.586 11.25 5.25 10.914 5.25 10.5ZM2.06775 9.18225C2.06775 8.76825 2.40375 8.43225 2.81775 8.43225C3.23175 8.43225 3.56775 8.76825 3.56775 9.18225C3.56775 9.59625 3.23175 9.93225 2.81775 9.93225C2.40375 9.93225 2.06775 9.59625 2.06775 9.18225ZM1.69275 2.81775C1.69275 2.19675 2.19675 1.69275 2.81775 1.69275C3.43875 1.69275 3.94275 2.19675 3.94275 2.81775C3.94275 3.43875 3.43875 3.94275 2.81775 3.94275C2.19675 3.94275 1.69275 3.43875 1.69275 2.81775ZM0.65625 6C0.65625 5.53425 1.03425 5.15625 1.5 5.15625C1.96575 5.15625 2.34375 5.53425 2.34375 6C2.34375 6.46575 1.96575 6.84375 1.5 6.84375C1.03425 6.84375 0.65625 6.46575 0.65625 6Z" fill="#F4A75F"/>
</g>
<defs>
<clipPath id="clip0_48_1052">
<rect width="12" height="12" fill="white"/>
</clipPath>
</defs>
</svg>
