<svg width="full" height="full" viewBox="0 0 24 25" fill="none" xmlns="http://www.w3.org/2000/svg">
<path d="M7.65173 3.84033H16.3476C19.0085 3.84033 20.6644 5.7185 20.6644 8.37639V17.3042C20.6644 19.9621 19.0085 21.8403 16.3467 21.8403H7.65173C4.99091 21.8403 3.33594 19.9621 3.33594 17.3042V8.37639C3.33594 5.7185 4.99871 3.84033 7.65173 3.84033Z" stroke="white" stroke-width="1.5" stroke-linecap="round" stroke-linejoin="round"/>
<path fill-rule="evenodd" clip-rule="evenodd" d="M14.2777 16.132C13.5516 16.7899 12.6451 17.3806 11.6471 17.7831C10.7972 18.1184 10.0857 17.7002 9.98139 16.863C9.85371 15.6291 9.85663 14.4468 9.98139 13.3445C10.0954 12.4751 10.879 12.1057 11.6471 12.4283C12.6295 12.8308 13.5116 13.3776 14.2777 14.0794C14.9327 14.673 14.9482 15.516 14.2777 16.132Z" stroke="white" stroke-width="1.5" stroke-linecap="round" stroke-linejoin="round"/>
<path d="M20.5516 9.04736H3.44727" stroke="white" stroke-width="1.5" stroke-linecap="round" stroke-linejoin="round"/>
<path d="M8.14866 9.04204L6.76172 3.91729M12.4247 9.04209L10.9764 3.84424M16.7098 9.04209L15.2614 3.84424" stroke="white" stroke-width="1.5" stroke-linecap="round" stroke-linejoin="round"/>
</svg>
