<svg width="full" height="full" viewBox="0 0 32 33" fill="none" xmlns="http://www.w3.org/2000/svg">
<path d="M24.5243 9.63252L24.5153 9.62344C24.2325 9.34063 24.0339 8.98516 23.9782 8.58948L23.7199 6.77844C23.6343 6.18426 23.249 5.67832 22.7055 5.42016C22.3331 5.24502 21.953 5.08674 21.5651 4.94793C20.9995 4.74556 20.369 4.82988 19.8877 5.19053L18.4218 6.28935C18.1026 6.52936 17.7134 6.64092 17.3151 6.64092H17.2997C16.9013 6.64092 16.5109 6.52936 16.193 6.28935L14.727 5.19053C14.2458 4.82988 13.6166 4.74556 13.0496 4.94793C12.6617 5.08674 12.2816 5.24372 11.9093 5.42016C11.3657 5.67703 10.9791 6.18297 10.8948 6.77844L10.6353 8.59077C10.5783 8.98645 10.3811 9.34063 10.0996 9.62344C10.097 9.62603 10.0931 9.62863 10.0905 9.63252C9.80767 9.91533 9.4522 10.1125 9.05652 10.1696L7.24548 10.4278C6.65001 10.5121 6.14536 10.8974 5.8872 11.441C5.71076 11.8133 5.55379 12.1947 5.41497 12.5813C5.2126 13.1482 5.29692 13.7787 5.65757 14.2601L6.76288 15.7338C6.99251 16.0386 7.11315 16.411 7.11445 16.7923C7.11445 16.8209 7.11445 16.8494 7.11575 16.8779C7.11835 17.2633 6.99509 17.6369 6.76417 17.9457L5.65757 19.4207C5.29692 19.9007 5.2126 20.5313 5.41497 21.0969C5.55379 21.4847 5.71076 21.8662 5.8872 22.2385C6.14407 22.7821 6.65001 23.1674 7.24548 23.253L9.05781 23.5125C9.45349 23.5682 9.80767 23.7654 10.0905 24.0482C10.0931 24.0509 10.0957 24.0547 10.0996 24.0573C10.3811 24.3389 10.5783 24.6942 10.6353 25.0899L10.8948 26.9023C10.9791 27.4965 11.3644 28.0025 11.908 28.2593C12.2803 28.4357 12.6617 28.5939 13.0483 28.7327C13.6153 28.9351 14.2458 28.8509 14.727 28.4889L16.1917 27.3914C16.5109 27.1514 16.9013 27.0398 17.3009 27.0411H17.3139C17.7134 27.0398 18.1039 27.1514 18.4231 27.3914L19.8865 28.4889C20.3678 28.8495 20.9982 28.9351 21.5638 28.7327C21.9518 28.5939 22.3331 28.4357 22.7055 28.2606C23.249 28.0025 23.6343 27.4978 23.7199 26.9023L23.9807 25.0783C24.0353 24.7007 24.2117 24.3518 24.4815 24.0806C24.501 24.0599 24.5205 24.0405 24.5399 24.021C24.811 23.7459 25.1626 23.5682 25.5439 23.5137L27.3693 23.253C27.9635 23.1674 28.4694 22.7821 28.7263 22.2385C28.9027 21.8674 29.061 21.4861 29.1998 21.0981C29.4022 20.5325 29.3178 19.9021 28.9559 19.4207L27.8506 17.9457C27.6223 17.6409 27.5003 17.2698 27.499 16.8883C27.499 16.8598 27.499 16.8313 27.4978 16.8041C27.4951 16.4174 27.6183 16.0425 27.8506 15.7338L28.9559 14.2601C29.3166 13.7787 29.4022 13.1495 29.1998 12.5826C29.061 12.1947 28.9027 11.8146 28.7275 11.4423C28.4694 10.8987 27.9647 10.5121 27.3693 10.4278L25.5557 10.1683C25.1613 10.1112 24.8058 9.91533 24.5243 9.63252Z" stroke="white" stroke-width="1.5" stroke-linecap="round" stroke-linejoin="round"/>
<path d="M21.9879 16.0916C22.4769 19.2933 19.7604 22.0112 16.5587 21.5208C14.5633 21.216 12.9327 19.5853 12.6278 17.59C12.1374 14.3882 14.8553 11.6704 18.0571 12.1608C20.0511 12.4669 21.6817 14.0976 21.9879 16.0916Z" stroke="white" stroke-width="1.5" stroke-linecap="round" stroke-linejoin="round"/>
</svg>
