<svg width="full" height="full" viewBox="0 0 147 192" fill="none" xmlns="http://www.w3.org/2000/svg">
<path d="M-107.476 103.006L-107.417 102.008L-107.476 103.006ZM-107.073 19.4792L-107.679 18.6836L-107.073 19.4792ZM-94.8839 166.069L-95.3375 166.961L-94.8839 166.069ZM145.403 142.07C145.941 142.196 146.274 142.734 146.148 143.272L144.091 152.034C143.965 152.571 143.426 152.905 142.889 152.779C142.351 152.653 142.017 152.114 142.144 151.577L143.972 143.788L136.184 141.96C135.647 141.834 135.313 141.295 135.439 140.758C135.566 140.22 136.104 139.886 136.641 140.013L145.403 142.07ZM-228.81 7.2691C-231.811 11.5676 -232.761 19.1507 -230.592 28.4037C-228.435 37.6094 -223.221 48.3035 -214.158 58.6594C-196.046 79.3547 -162.544 98.7105 -107.417 102.008L-107.536 104.004C-163.091 100.681 -197.134 81.1482 -215.663 59.9766C-224.92 49.3991 -230.3 38.4153 -232.54 28.86C-234.768 19.3521 -233.918 11.0913 -230.45 6.12418L-228.81 7.2691ZM-107.417 102.008C-71.7369 104.142 -48.3643 95.6631 -34.7105 83.0282C-21.0665 70.4025 -17.0005 53.5159 -20.1195 38.4996C-23.242 23.467 -33.552 10.3542 -48.6373 5.25071C-63.6981 0.155497 -83.746 2.97337 -106.468 20.2748L-107.679 18.6836C-84.5891 1.10157 -63.8562 -2.00934 -47.9964 3.35619C-32.161 8.71343 -21.4104 22.4508 -18.1613 38.0929C-14.9089 53.7511 -19.1604 71.3636 -33.3521 84.4961C-47.5338 97.6195 -71.515 106.158 -107.536 104.004L-107.417 102.008ZM-106.468 20.2748C-129.476 37.7942 -145.498 64.3758 -146.276 91.3404C-147.051 118.218 -132.685 145.711 -94.4304 165.178L-95.3375 166.961C-134.155 147.207 -149.076 119.065 -148.275 91.2827C-147.476 63.5876 -131.057 36.4846 -107.679 18.6836L-106.468 20.2748ZM-94.4304 165.178C-63.7256 180.803 -29.1568 190.655 10.3089 188.817C49.7776 186.979 94.2147 173.447 144.648 142.193L145.701 143.894C95.0373 175.29 50.2738 188.958 10.4019 190.815C-29.4729 192.672 -64.3848 182.712 -95.3375 166.961L-94.4304 165.178Z" fill="url(#paint0_linear_2_2767)"/>
<defs>
<linearGradient id="paint0_linear_2_2767" x1="33" y1="319" x2="-216.252" y2="-10.6974" gradientUnits="userSpaceOnUse">
<stop stop-color="#8150ED"/>
<stop offset="1" stop-color="white"/>
</linearGradient>
</defs>
</svg>
