<svg width="23" height="23" viewBox="0 0 23 23" fill="none" xmlns="http://www.w3.org/2000/svg">
<path fill-rule="evenodd" clip-rule="evenodd" d="M18.9857 4.97534C19.012 4.85995 18.8976 4.76327 18.7883 4.80808L4.10558 10.8164C4.0442 10.8415 4.01946 10.8725 4.00635 10.8971C3.99012 10.9274 3.9805 10.9708 3.98706 11.0207C3.99361 11.0704 4.01415 11.1099 4.03761 11.1349C4.05625 11.1547 4.08738 11.1779 4.15112 11.1866L8.51048 11.6824C8.64574 11.6978 8.77332 11.7533 8.87676 11.8418L15.6874 17.6676C15.701 17.6792 15.7142 17.6914 15.7268 17.704C15.8504 17.828 16.0635 17.7674 16.1027 17.5953L18.9857 4.97534ZM20.3155 5.27928C20.588 4.08694 19.4036 3.08123 18.2706 3.54605L3.589 9.5539C2.10806 10.1598 2.39371 12.3388 3.98265 12.5403L8.14879 13.0142L14.7829 18.689C15.669 19.5455 17.1575 19.106 17.4328 17.8986L20.3155 5.27928Z" fill="white"/>
<path fill-rule="evenodd" clip-rule="evenodd" d="M8.37285 11.6828C8.74809 11.6498 9.07903 11.9273 9.11202 12.3025L9.4484 16.1281L11.1088 14.7104C11.3953 14.4658 11.8258 14.4998 12.0703 14.7863C12.315 15.0727 12.281 15.5033 11.9946 15.7478L10.2815 17.2104C9.51025 17.8691 8.31423 17.4574 8.11274 16.4626C8.10767 16.4376 8.10402 16.4124 8.10178 16.3869L7.75315 12.422C7.72016 12.0468 7.99761 11.7158 8.37285 11.6828Z" fill="white"/>
<path fill-rule="evenodd" clip-rule="evenodd" d="M19.9295 3.90845C20.1527 4.21193 20.0876 4.63884 19.7841 4.86199L8.83857 12.9096C8.53508 13.1328 8.10817 13.0676 7.88504 12.7641C7.66189 12.4607 7.72703 12.0338 8.03051 11.8106L18.976 3.76296C19.2795 3.53983 19.7064 3.60496 19.9295 3.90845Z" fill="white"/>
</svg>
