<svg width="fill" height="fill" viewBox="0 0 40 40" fill="none" xmlns="http://www.w3.org/2000/svg">
<g opacity="0.1">
<path fill-rule="evenodd" clip-rule="evenodd" d="M18.7494 24.4231C13.946 24.4231 9.84961 25.2083 9.84961 28.3505C9.84961 31.4943 13.9241 32.3062 18.7494 32.3062C23.5495 32.3062 27.6491 31.5194 27.6491 28.3771C27.6491 25.2365 23.5762 24.4231 18.7494 24.4231Z" stroke="white" stroke-width="1.38462" stroke-linecap="round" stroke-linejoin="round"/>
<path fill-rule="evenodd" clip-rule="evenodd" d="M24.8943 13.8392C24.8943 17.2332 22.1431 19.9861 18.7474 19.9861C15.3533 19.9861 12.6021 17.2332 12.6021 13.8392C12.6021 10.4451 15.3533 7.69226 18.7474 7.69226C22.1431 7.69226 24.8943 10.4451 24.8943 13.8392Z" stroke="white" stroke-width="1.38462" stroke-linecap="round" stroke-linejoin="round"/>
<path d="M8.74486 22.1935H8.73235C6.07964 22.6064 4.22461 23.5715 4.22461 25.5172C4.22461 26.5213 4.72356 27.2658 5.57599 27.8055" stroke="white" stroke-width="1.38462" stroke-linecap="round" stroke-linejoin="round"/>
<path d="M28.6421 22.1935H28.6545C31.3073 22.6064 33.1622 23.5715 33.1622 25.5172C33.1622 26.5213 32.6633 27.2658 31.8109 27.8055" stroke="white" stroke-width="1.38462" stroke-linecap="round" stroke-linejoin="round"/>
<path d="M28.1656 17.5509C30.1253 16.8174 31.2562 14.7121 30.7259 12.6381C30.2974 10.9614 28.907 9.78677 27.2959 9.5553" stroke="white" stroke-width="1.38462" stroke-linecap="round" stroke-linejoin="round"/>
<path d="M9.22027 17.5509C7.26045 16.8174 6.12962 14.7121 6.65984 12.6381C7.08841 10.9614 8.47888 9.78677 10.0899 9.5553" stroke="white" stroke-width="1.38462" stroke-linecap="round" stroke-linejoin="round"/>
</g>
</svg>
