<svg width="full" height="full" viewBox="0 0 14 14" fill="none" xmlns="http://www.w3.org/2000/svg">
<path d="M3.9613 3.5166H7.46549C8.6901 3.5166 9.45273 4.38135 9.45273 5.60483V8.90653C9.45273 10.13 8.6901 10.9948 7.46492 10.9948H3.9613C2.73615 10.9948 1.97461 10.13 1.97461 8.90653V5.60483C1.97461 4.38135 2.74005 3.5166 3.9613 3.5166Z" stroke="white" stroke-width="0.677328" stroke-linecap="round" stroke-linejoin="round"/>
<path fill-rule="evenodd" clip-rule="evenodd" d="M6.84319 7.802C6.46048 8.15179 5.98178 8.46643 5.45514 8.68127C5.00714 8.8592 4.63167 8.63719 4.57644 8.19142C4.50949 7.53422 4.51117 6.90489 4.57644 6.31797C4.63669 5.85435 5.0501 5.65797 5.45514 5.8298C5.97342 6.04459 6.4387 6.33526 6.84319 6.70904C7.18854 7.02482 7.1969 7.47394 6.84319 7.802Z" stroke="white" stroke-width="0.677328" stroke-linecap="round" stroke-linejoin="round"/>
<path d="M9.44971 6.21909L11.2077 4.78025C11.4922 4.54705 11.9123 4.58889 12.1455 4.87342C12.2431 4.99281 12.2967 5.14233 12.2961 5.29631L12.29 9.21894C12.2889 9.58715 11.9904 9.88507 11.6222 9.88393C11.4687 9.88393 11.3198 9.83037 11.201 9.73278L9.44971 8.29447" stroke="white" stroke-width="0.677328" stroke-linecap="round" stroke-linejoin="round"/>
</svg>
